<svg xmlns="http://www.w3.org/2000/svg" id="Layer_2" data-name="Layer 2" viewBox="0 0 3795.1 3789.7"><defs><style>      .cls-1 {        fill: #fff;        fill-rule: evenodd;        isolation: isolate;        opacity: .2;        stroke-width: 0px;      }    </style></defs><g id="Layer_1-2" data-name="Layer 1-2"><path class="cls-1" d="M2120.7,0h-446.3l223.2,1894.8-223.2,1894.8h446.3l-223.2-1894.8,621.3,1804,201.1-96.8,201.1-96.8-1023.5-1610.4,1342.8,1355.8,139.1-174.4,139.1-174.4-1621-1007,1798.2,639.2,49.7-217.5,49.7-217.5-1897.6-204.1,1897.6-204.1-49.7-217.5-49.7-217.5-1798.2,639.2,1621-1007-278.3-348.9-1342.8,1355.8,1023.5-1610.4-201.1-96.8-201.1-96.8-621.3,1804L2120.7,0M1276.2,90.8l-201.1,96.8-201.1,96.8,1023.5,1610.4L1276.2,90.8M554.8,539l-278.3,348.9,1621,1007L554.8,539M99.3,1255.7l-49.7,217.5L0,1690.7l1897.6,204.1L99.3,1255.7M1897.6,1894.8L0,2099l49.7,217.5,49.7,217.5,1798.2-639.2M1897.6,1894.8l-1621,1007,139.1,174.4,139.1,174.4,1342.8-1355.8M1897.6,1894.8l-1023.5,1610.4,201.1,96.8,201.1,96.8,621.3-1804"></path></g></svg>